<svg width="59" height="59" viewBox="0 0 59 59" fill="none" xmlns="http://www.w3.org/2000/svg">
<path d="M57.1621 7.15132C57.8822 7.87135 57.8822 9.03874 57.1621 9.75877L53.3165 13.6044L45.9415 6.2294L49.7871 2.38377C50.5072 1.66374 51.6746 1.66374 52.3946 2.38377L57.1621 7.15132Z" fill="white"/>
<path d="M50.709 16.2119L43.334 8.83686L18.2111 33.9598C18.0087 34.1622 17.8562 34.4089 17.7657 34.6805L14.7989 43.5809C14.5587 44.3016 15.2443 44.9872 15.965 44.747L24.8654 41.7802C25.137 41.6897 25.3837 41.5372 25.5861 41.3348L50.709 16.2119Z" fill="white"/>
<path fill-rule="evenodd" clip-rule="evenodd" d="M3.6875 49.7812C3.6875 52.8361 6.16393 55.3125 9.21875 55.3125H49.7812C52.8361 55.3125 55.3125 52.8361 55.3125 49.7812V27.6562C55.3125 26.638 54.487 25.8125 53.4687 25.8125C52.4505 25.8125 51.625 26.638 51.625 27.6562V49.7812C51.625 50.7995 50.7995 51.625 49.7812 51.625H9.21875C8.20047 51.625 7.375 50.7995 7.375 49.7812V9.21875C7.375 8.20048 8.20048 7.375 9.21875 7.375H33.1875C34.2058 7.375 35.0312 6.54952 35.0312 5.53125C35.0312 4.51298 34.2058 3.6875 33.1875 3.6875H9.21875C6.16392 3.6875 3.6875 6.16392 3.6875 9.21875V49.7812Z" fill="white"/>
</svg>
